/* XPM */
static char *_4abfad06c3c4013b8bcbd8b098077c9[] = {
/* columns rows colors chars-per-pixel */
"64 64 255 2 ",
"   c #0E100C",
".  c #14130E",
"X  c #1A1710",
"o  c #1D1F1B",
"O  c #271E15",
"+  c #2D1C17",
"@  c #201F1B",
"#  c #371B13",
"$  c #311E18",
"%  c #25221D",
"&  c #2B251E",
"*  c #33261D",
"=  c #3B251B",
"-  c #3C2A1F",
";  c #2F2720",
":  c #2A2B26",
">  c #2D2D29",
",  c #3C2720",
"<  c #332921",
"1  c #3C2D23",
"2  c #3E3127",
"3  c #383933",
"4  c #3B3D3A",
"5  c #422117",
"6  c #462318",
"7  c #432A1E",
"8  c #432C21",
"9  c #482B22",
"0  c #443124",
"q  c #4B3224",
"w  c #493A27",
"e  c #4B3529",
"r  c #4D3D2A",
"t  c #523525",
"y  c #543926",
"u  c #593926",
"i  c #553728",
"p  c #593729",
"a  c #553C2C",
"s  c #5C3C2A",
"d  c #633123",
"f  c #623628",
"g  c #623F2B",
"h  c #6D3A28",
"j  c #643D30",
"k  c #6A3F30",
"l  c #5E412E",
"z  c #4A433C",
"x  c #5F4B3D",
"c  c #63402C",
"v  c #6D452D",
"b  c #72472E",
"n  c #7B432E",
"m  c #73482F",
"M  c #654331",
"N  c #6B4532",
"B  c #644936",
"V  c #6F4A34",
"C  c #6A4D3D",
"Z  c #724331",
"A  c #7B4434",
"S  c #764D36",
"D  c #794C35",
"F  c #744D3A",
"G  c #7B4D38",
"H  c #7D5135",
"J  c #76523B",
"K  c #7C5239",
"L  c #4A4946",
"P  c #4A4C49",
"I  c #585754",
"U  c #595B58",
"Y  c #724F41",
"T  c #6F5147",
"R  c #6E5648",
"E  c #755544",
"W  c #7B5748",
"Q  c #666562",
"!  c #686A67",
"~  c #736C66",
"^  c #747371",
"/  c #814E36",
"(  c #8D4E34",
")  c #834C39",
"_  c #82553A",
"`  c #8A543B",
"'  c #85583B",
"]  c #8B5B3E",
"[  c #925B3F",
"{  c #9A5C3E",
"}  c #815544",
"|  c #895747",
" . c #875E46",
".. c #8E5C42",
"X. c #845E48",
"o. c #935D42",
"O. c #9A5D44",
"+. c #8A614A",
"@. c #946143",
"#. c #9C6443",
"$. c #9E6A47",
"%. c #9B644A",
"&. c #946C4D",
"*. c #9E6848",
"=. c #886759",
"-. c #926653",
";. c #906B52",
":. c #9B6E56",
">. c #9C7450",
",. c #9E7259",
"<. c #A46646",
"1. c #A26947",
"2. c #A26649",
"3. c #A56A4A",
"4. c #A96D4C",
"5. c #A67049",
"6. c #AC714E",
"7. c #B0724E",
"8. c #A86650",
"9. c #A66D50",
"0. c #A96F57",
"q. c #AB7253",
"w. c #A4785A",
"e. c #B37552",
"r. c #B57956",
"t. c #BA7A55",
"y. c #B1765A",
"u. c #B67C5B",
"i. c #BB7D5B",
"p. c #827362",
"a. c #957562",
"s. c #927F70",
"d. c #AD7D60",
"f. c #BB7863",
"g. c #BE7C6E",
"h. c #C17F59",
"j. c #C27D64",
"k. c #F09500",
"l. c #F19C10",
"z. c #F2A220",
"x. c #F3A930",
"c. c #AC825D",
"v. c #B38153",
"b. c #B3835D",
"n. c #BB835E",
"m. c #AD8161",
"M. c #AC866B",
"N. c #B38365",
"B. c #BF8460",
"V. c #BF8861",
"C. c #BD8A69",
"Z. c #A78C70",
"A. c #AC8A74",
"S. c #BD8E76",
"D. c #B79679",
"F. c #C4815B",
"G. c #C8845E",
"H. c #F4B040",
"J. c #F5B650",
"K. c #C18663",
"L. c #CA8660",
"P. c #C28A63",
"I. c #CB8962",
"U. c #C5866A",
"Y. c #C68D6A",
"T. c #C98E6C",
"R. c #D08D66",
"E. c #C2906C",
"W. c #CB936C",
"Q. c #CF986F",
"!. c #D2936B",
"~. c #D79C6F",
"^. c #C68274",
"/. c #CC8E71",
"(. c #D58D7F",
"). c #CC9571",
"_. c #C99976",
"`. c #D39771",
"'. c #D49A74",
"]. c #DB9C75",
"[. c #D5907C",
"{. c #D29B78",
"}. c #E09E79",
"|. c #CDA07F",
" X c #DBA375",
".X c #D5A078",
"XX c #DBA47A",
"oX c #DFA97D",
"OX c #F6BD60",
"+X c #E2AA7F",
"@X c #F7C370",
"#X c #878886",
"$X c #908F8D",
"%X c #969695",
"&X c #999490",
"*X c #9D9D9B",
"=X c #B0A192",
"-X c #B9A397",
";X c #BBA79B",
":X c #ABABAA",
">X c #BFB7B1",
",X c #CCA186",
"<X c #D1A789",
"1X c #D8A889",
"2X c #DFB995",
"3X c #DBB59B",
"4X c #DBBC9E",
"5X c #E4AF87",
"6X c #E4BA97",
"7X c #E9BF9E",
"8X c #C3B2A8",
"9X c #DCBDA7",
"0X c #E0BAA2",
"qX c #F8CA80",
"wX c #F9D79F",
"eX c #DCC1AB",
"rX c #DEC3B3",
"tX c #E2C3AA",
"yX c #E5C9AF",
"uX c #FADEAF",
"iX c #E0C5B1",
"pX c #E6CBB1",
"aX c #E9CDBC",
"sX c #F1D5BF",
"dX c #FBE5BF",
"fX c #C4C4C3",
"gX c #CCCAC8",
"hX c #D3CDC3",
"jX c #D3CFCB",
"kX c #DDD4CE",
"lX c #D5D5D4",
"zX c #DEDBD7",
"xX c #E2D2C5",
"cX c #E8D3C4",
"vX c #EDDCCB",
"bX c #E6DFDA",
"nX c #F3E2CF",
"mX c #E0E0DF",
"MX c #EFE3DA",
"NX c #F5E5D3",
"BX c #F4E6DD",
"VX c #F6E8DE",
"CX c #FDF2DF",
"ZX c #E2E2E2",
"AX c #F3E9E2",
"SX c #F9EEE4",
"DX c #F6EEE9",
"FX c #F9F1E7",
"GX c #FAF4EE",
"HX c #FEF8EF",
"JX c #F1F1F1",
"KX c #FAF6F0",
"LX c #FBF8F5",
"PX c #FFFFFF",
"IX c None",
/* pixels */
"IXIXIXIXIXIXIXIXIXIXIXIXIXIXIXIXIXIXIXIXIXIXIXIXIXk.k.k.k.k.k.k.k.k.k.k.k.k.k.IXIXIXIXIXIXIXIXIXIXIXIXIXIXIXIXIXIXIXIXIXIXIXIXIX",
"IXIXIXIXIXIXIXIXIXIXIXIXIXIXIXIXIXIXIXIXIXIXk.k.k.k.k.k.k.k.k.k.k.k.k.k.k.k.k.k.k.k.IXIXIXIXIXIXIXIXIXIXIXIXIXIXIXIXIXIXIXIXIXIX",
"IXIXIXIXIXIXIXIXIXIXIXIXIXIXIXIXIXIXIXk.k.k.k.k.k.k.x.J.@XqXuXnXnXuX@XqXJ.x.k.k.k.k.k.k.k.IXIXIXIXIXIXIXIXIXIXIXIXIXIXIXIXIXIXIX",
"IXIXIXIXIXIXIXIXIXIXIXIXIXIXIXIXIXk.k.k.k.k.z.@XuXHXPXPXPXPXkXfXgXlXPXPXPXPXHXuX@Xz.k.k.k.k.k.IXIXIXIXIXIXIXIXIXIXIXIXIXIXIXIXIX",
"IXIXIXIXIXIXIXIXIXIXIXIXIXIXIXk.k.k.k.k.OXdXPXPXPXPXPX$X@ @ @ @ @ o o o I ^ *XZXPXPXdXOXk.k.k.k.k.IXIXIXIXIXIXIXIXIXIXIXIXIXIXIX",
"IXIXIXIXIXIXIXIXIXIXIXIXIXIXk.k.k.k.OXCXPXPXPXPXPXZXL @ @ @ o & ; % ; ; % % ; ; z &XZXPXFXOXk.k.k.k.IXIXIXIXIXIXIXIXIXIXIXIXIXIX",
"IXIXIXIXIXIXIXIXIXIXIXIXk.k.k.k.H.CXPXPXPXPXPXPXlX> @ @ @ @ % < ; < < < < < < < < < < ~ jXPXCXx.k.k.k.k.IXIXIXIXIXIXIXIXIXIXIXIX",
"IXIXIXIXIXIXIXIXIXIXIXk.k.k.l.wXPXPXPXPXPXPXPXlX> @ @ @ @ @ & < 1 a J @.%.@.i.G.u.C 2 < < s.GXPXwXl.k.k.k.IXIXIXIXIXIXIXIXIXIXIX",
"IXIXIXIXIXIXIXIXIXIXk.k.k.x.CXPXPXPXPXPXPXPXPXL @ @ @ @ % & < V r.h.L.L.G.G.G.!.5X+X+X+X+X+X+XsXPXSXx.k.k.k.IXIXIXIXIXIXIXIXIXIX",
"IXIXIXIXIXIXIXIXIXk.k.k.OXHXPXPXPXPXPXPXPXPX$X@ @ @ @ @ % < a i.L.G.G.G.G.G.h.}.+X+X+X+X+X+X+X+X6XGXHXOXk.k.k.IXIXIXIXIXIXIXIXIX",
"IXIXIXIXIXIXIXIXk.k.k.OXPXPXPXPXPXPXPXPXPXJX> @ @ @ o % < < S e.h.G.G.G.G.G.!.+X+X+X+X+X+X+X+X+X+X5XFXPXOXk.k.k.IXIXIXIXIXIXIXIX",
"IXIXIXIXIXIXIXk.k.k.OXPXPXPXPXPXPXPXPXPXPX^ @ @ @ % % & < < ..3.8.r.h.L.G.G.].+X+X+X+X+X+X+X+X+X+X+X5XxXPXOXk.k.k.IXIXIXIXIXIXIX",
"IXIXIXIXIXIXk.k.k.OXPXPXPXPXPXPXPXPXPXPXZXo @ @ % < & < < < *.3.3.4.G.G.G.G.`.+X+X+X+X+X+X+X+X+X+X+X+Xb.>XPXOXk.k.k.IXIXIXIXIXIX",
"IXIXIXIXIXIXk.k.x.HXPXPXPXPXPXPXPXPXPXPX:X@ @ @ < < < < < < J 2.3.3.G.G.G.G.R.+X+X+X+X+X+X+X+X+X+X+X5XXXx PXHXx.k.k.IXIXIXIXIXIX",
"IXIXIXIXIXk.k.l.CXPXPXPXPXPXPXPXPXPXPXPX$X@ @ @ ; < < < < < V _ 4.7.G.G.G.G.G.!.+X+X+X+X+X+X+X+X+X+XoX+X;.jXPXCXl.k.k.IXIXIXIXIX",
"IXIXIXIXk.k.k.wXPXPXPXPXPXPXPXPXPXPXPXPX$X@ @ @ & < ; < < < a S 3.7.G.G.G.G.G.G.~.+X+X+X+X+X+X+X+X+X+X+X X=XPXPXwXk.k.k.IXIXIXIX",
"IXIXIXIXk.k.H.PXPXPXPXPXPXPXPXPXPXPXPXPXI @ @ @ & < < < < < S ] <.t.G.G.G.L.L.G.!.+X+X+X+X+X+X+X+X+X+X+X XZ.PXPXPXH.k.k.IXIXIXIX",
"IXIXIXk.k.k.CXPXPXPXPXPXPXPXPXPXPXPXPXPXI @ @ @ ; < < < < e [ 4.3.i.G.G.G.L.h.G.G.!.+X+X+X+X+X+X+X X~.~. Xc.PXPXPXCXk.k.k.IXIXIX",
"IXIXIXk.k.OXPXPXPXPXPXPXPXPXPXPXPXPXPXPXI @ % % < < < < < B 3.3.4.4.G.G.j.G.L.G.G.G.I.!.].+XoX~.~.b.&.&.b.>.PXPXPXPXOXk.k.IXIXIX",
"IXIXk.k.k.CXPXPXPXPXPXPXPXPXPXPXPXPXPXPXQ @ % ; < < < < 1 #.4.3.] f t t = q s i q V i.G.L.+X~.n.J * < < * w zXPXPXPXCXk.k.k.IXIX",
"IXIXk.k.OXPXPXPXPXPXPXPXPXPXPXPXPXPXPXPX$X@ % < < < < < B 1.<./ = = = = = = = = = = 7 r.G.XXP.k u q j ,.B r jXPXPXPXPXOXk.k.IXIX",
"IXIXk.k.dXPXPXPXPXPXPXPXPXPXPXPXPXPXPXPX$X@ & < < < < < _ K K q = = 7 N A E W k N t = Z G.'.w.A 9 8 M d.C.;.kXPXPXPXPXdXk.k.IXIX",
"IXk.k.z.PXPXPXPXPXPXPXPXPXPXPXPXPXPXPXPX*X@ ; < < < < < [ #.' c t i 7 , e Y =.Y j A Z j *.I.'.7 + + R F +.d.PXPXPXPXPXPXz.k.k.IX",
"IXk.k.@XPXPXPXPXPXPXPXPXPXPXPXPXPXPXPXPXS./.).;.< < < 0 ' #.#.] S f 9 8 i c M.d...3.3.#.1.F.].m.C Y W -.:.E.PXPXPXPXPXPX@Xk.k.IX",
"IXk.k.uXPXPXPXPXPXPXPXPXPXPXPXPXPXPXPXkX..0.9.u.C < < < K #.<.t.t.[ / ` { <.e.I.G.e.4.<.4.h.I.}.,.| :.N.C.E.MXPXPXPXPXPXuXk.k.IX",
"k.k.k.HXPXPXPXPXPXPXPXPXPXPXPXPXPXPXPX8XS ......K < < 1 ] #.e.G.G.G.n.r.u.T.}.}.].G.h.<.<.t.h.].+XW.).{.XXXXVXPXPXPXPXPXHXk.k.k.",
"k.k.x.PXPXPXPXPXPXPXPXPXPXPXPXPXPXPXPX;X' <.<...K a < a #.#.#.F.G.G.].}.}.}.}.}.}.!.3.3.4.4.4.I.+X+X+X+X5XoXsXPXPXPXPXPXPXx.k.k.",
"k.k.J.PXPXPXPXPXPXPXPXPXPXPXPXPXPXPXPX;X[ <.<.' F l < a _ #.#.e.G.G.L.].}.}.}.}.}.}.<.{ <.<.<.L. X+X+X+X+XoXsXPXPXPXPXPXPXJ.k.k.",
"k.k.qXPXPXPXPXPXPXPXPXPXPXPXPXPXPXPXPXkX` <.<.#.K M < e J K #.7.F.G.G.I.}.}.}.}.}.}.<.( <.7.4.i.'.Q.XX+X+X+X7XPXPXPXPXPXPXqXk.k.",
"k.k.qXPXPXPXPXPXPXPXPXPXPXPXPXPXPXPXPXPX;.<.<.<.] F < 1 S K #.#.t.G.G.G.].}.}.}.}.}.n n h d n ( { *.XX+X+X+X7XPXPXPXPXPXPXqXk.k.",
"k.k.uXPXPXPXPXPXPXPXPXPXPXPXPXPXPXPXPXPX;XO.<.<...S * < S S #.#.1.5.i.G.R.}.}.}.}.}.) d 6 # 5 d d n +X+X+XoX2XPXPXPXPXPXPXuXk.k.",
"k.k.dXPXPXPXPXPXPXPXPXPXPXPXPXPXPXPXPXPXKXX.<.<.<.S $ e S S _ #.#.#.<.h.G.I.!.}.}.].i.` n f 6 d h 9.'.T.Q.oX6XPXPXPXPXPXPXdXk.k.",
"k.k.nXPXPXPXPXPXPXPXPXPXPXPXPXPXPXPXPXPXPX;X[ <.3.[ B m v S S @.#.#.#.i.G.G.G.L.!.I.6.2.2.0.0.f.9.2.u.V.V.P.<XPXPXPXPXPXPXdXk.k.",
"k.k.uXPXPXPXPXPXPXPXPXPXPXPXPXPXPXPXPXPXPXPX;XK _ K J S S S S #.#.#.#.t.G.G.e.e.8.G ..2.y.^.U.U.y.0.9.2.n.P.iXPXPXPXPXPXPXuXk.k.",
"k.k.qXPXPXPXPXPXPXPXPXPXPXPXPXPXPXPXPXPXPXPXPXPX8XS S S S S S K { #.#.#.#./ b v Z Z _ y.Y.U.j.j.U.T./...9.V.rXPXPXPXPXPXPXqXk.k.",
"k.k.@XPXPXPXPXPXPXPXPXPXPXPXPXPXPXPXPXPXPXPXPXPXPXm S J S S S c m S _ #.5.] Z b Z Z Z G S k O.8.O.%.} S $.P.cXPXPXPXPXPXPXqXk.k.",
"k.k.J.PXPXPXPXPXPXPXPXPXPXPXPXPXPXPXPXPXPXPXPXPXPXX.m J S S S v b J S K 6.v.$.@.[ [ [ *.B.(.^.g.(./.V.y.r.V.AXPXPXPXPXPXPXJ.k.k.",
"k.k.x.PXPXPXPXPXPXPXPXPXPXPXPXPXPXPXPXPXPXPXPXPXPXa.c q V S J S S J S S $.v.5.6.#.[ ( ` O.2...O.f.U.P.P.b._.PXPXPXPXPXPXPXx.k.k.",
"k.k.k.HXPXPXPXPXPXPXPXPXPXPXPXPXPXPXPXPXPXPXPXPXPXa.b - 8 c S S S S S S @.v.#.#.#.#.( [ ..o.{ #.8.U.W.9.n.9XPXPXPXPXPXPXHXk.k.k.",
"IXk.k.uXPXPXPXPXPXPXPXPXPXPXPXPXPXPXPXPXPXPXPXPXPX-Xb 9 - - B S S S S D ] #.#.#.#.#.#.9.6.#.@.q.W.'.F.2.u.vXPXPXPXPXPXPXuXk.k.IX",
"IXk.k.@XPXPXPXPXPXPXPXPXPXPXPXPXPXPXPXPXPXPXPXPXPX-Xb u - - 7 c J S S S K #.#.#.#.#.<.P.P.P.P.].{.].P.n.|.PXPXPXPXPXPXPX@Xk.k.IX",
"IXk.k.z.PXPXPXPXPXPXPXPXPXPXPXPXPXPXPXPXPXPXPXPXPX-Xb b q - - - q N J S S K #.#.#.#.5.t.v.P.b.!.].P.P.P.AXPXPXPXPXPXPXPXz.k.k.IX",
"IXIXk.k.dXPXPXPXPXPXPXPXPXPXPXPXPXPXPXPXPXPXPXPXPX-Xb b v 8 - - - - 8 q e l V _ _ #.#.#.#.V.6.e.Q.P.P.3XPXPXPXPXPXPXPXdXk.k.IXIX",
"IXIXk.k.OXPXPXPXPXPXPXPXPXPXPXPXPXPXPXPXPXPXPXPXPX-Xb b b b q - - - - - - - - e V ' #.#.#.6.#.#.3.P.E.LXPXPXPXPXPXPXPXOXk.k.IXIX",
"IXIXk.k.k.CXPXPXPXPXPXPXPXPXPXPXPXPXPXPXPXPXPXPXfXJ m ' ' ' m c 8 - - - - - - - 7 l K S J <.@.] #.6.iXPXPXPXPXPXPXPXCXk.k.k.IXIX",
"IXIXIXk.k.OXPXPXPXPXPXPXPXPXPXPXPXPXPXPXPXPXPXfX  u D ' ' ' ' m v y - - - - - - - - q a u S #.] _ A.PXPXPXPXPXPXPXPXOXk.k.IXIXIX",
"IXIXIXk.k.k.CXPXPXPXPXPXPXPXPXPXPXPXPXPXPXPXZXo X v H ' ' ' ' ' _ b c - - - - - - - - - - - * O e eXVXPXPXPXPXPXPXCXk.k.k.IXIXIX",
"IXIXIXIXk.k.H.PXPXPXPXPXPXPXPXPXPXPXPXPXPXJX4   - b m ' ' ] $.@.[ ' H v y - - - - - - - - q S $.e.tXnXKXPXPXPXPXPXH.k.k.IXIXIXIX",
"IXIXIXIXk.k.k.wXPXPXPXPXPXPXPXPXPXPXPXPXJX4     * b b ' ' 5.e.e.e.#.' ' D b c q q q q u V ' ..e.).pXnXNXPXPXPXPXwXk.k.k.IXIXIXIX",
"IXIXIXIXIXk.k.l.CXPXPXPXPXPXPXPXPXPXPXJX4       X b b ' ] e.e.e.e.6.] ' ' K b b b b D _ ' $.e.i.{.iXnXnXFXPXPXCXl.k.k.IXIXIXIXIX",
"IXIXIXIXIXIXk.k.x.HXPXPXPXPXPXPXPXPXmX4           c m ' @.e.e.e.e.6.@.' ' m m K _ ' @.3.e.e.e.Y..XtXnXnXNXPXHXx.k.k.IXIXIXIXIXIX",
"IXIXIXIXIXIXk.k.k.OXPXPXPXPXPXPXJX#Xo             = D ' @.e.e.e.e.e.6.] ' ' ' ' #.6.e.e.e.e.e.{.'.4XnXnXKXPXOXk.k.k.IXIXIXIXIXIX",
"IXIXIXIXIXIXIXk.k.k.OXPXPXPXZX! o                 . b ' [ e.e.e.e.e.7.@.' ' 1.e.7.e.n.t.e.i.).{.{.D.vXGXPXOXk.k.k.IXIXIXIXIXIXIX",
"IXIXIXIXIXIXIXIXk.k.k.OXPXZXo                       t _ ' e.e.e.e.e.e.e.4.$.e.e.e.Y.{.{./.T.{.{.W.~ KXPXOXk.k.k.IXIXIXIXIXIXIXIX",
"IXIXIXIXIXIXIXIXIXk.k.k.OXHXZX4                     O D ' e.e.e.e.e.r.e.e.e.e.e.u.{.{.{.{.{.{.{.,XZXHXOXk.k.k.IXIXIXIXIXIXIXIXIX",
"IXIXIXIXIXIXIXIXIXIXk.k.k.x.CXPX#X                    y ' 7.e.e.e.P..XY.r.e.e.e.T.{.{.{.{.{.{.aXPXCXx.k.k.k.IXIXIXIXIXIXIXIXIXIX",
"IXIXIXIXIXIXIXIXIXIXIXk.k.k.l.wXPXZXP                   u 9.e.e.e.i.{.{.{.V.e.e.{.{.{.{.{.3XGXPXwXl.k.k.k.IXIXIXIXIXIXIXIXIXIXIX",
"IXIXIXIXIXIXIXIXIXIXIXIXk.k.k.k.H.CXPXfXU                 l e.e.e.e.Y.{.'.{.n.u.{.{.{.9XBXPXCXH.k.k.k.k.IXIXIXIXIXIXIXIXIXIXIXIX",
"IXIXIXIXIXIXIXIXIXIXIXIXIXIXk.k.k.k.OXCXPXZX#X>         3 3 8 6.e.e.r.{.{.{./.T.1XaXGXPXCXOXk.k.k.k.IXIXIXIXIXIXIXIXIXIXIXIXIXIX",
"IXIXIXIXIXIXIXIXIXIXIXIXIXIXIXk.k.k.k.k.OXdXPXPXZX%X! P : hXo . K e.e.Y.3XtXrXDXPXPXdXOXk.k.k.k.k.IXIXIXIXIXIXIXIXIXIXIXIXIXIXIX",
"IXIXIXIXIXIXIXIXIXIXIXIXIXIXIXIXIXk.k.k.k.k.z.@XuXHXPXPXPXPXmXfXfXbXPXPXPXPXHXuX@Xz.k.k.k.k.k.IXIXIXIXIXIXIXIXIXIXIXIXIXIXIXIXIX",
"IXIXIXIXIXIXIXIXIXIXIXIXIXIXIXIXIXIXIXk.k.k.k.k.k.k.x.J.qXqXuXdXdXuXqXqXJ.x.k.k.k.k.k.k.k.IXIXIXIXIXIXIXIXIXIXIXIXIXIXIXIXIXIXIX",
"IXIXIXIXIXIXIXIXIXIXIXIXIXIXIXIXIXIXIXIXIXIXk.k.k.k.k.k.k.k.k.k.k.k.k.k.k.k.k.k.k.k.IXIXIXIXIXIXIXIXIXIXIXIXIXIXIXIXIXIXIXIXIXIX",
"IXIXIXIXIXIXIXIXIXIXIXIXIXIXIXIXIXIXIXIXIXIXIXIXIXk.k.k.k.k.k.k.k.k.k.k.k.k.k.IXIXIXIXIXIXIXIXIXIXIXIXIXIXIXIXIXIXIXIXIXIXIXIXIX"
};
