/* XPM */
static char *_4ef4d2a1de74b42bbdef0f894169489[] = {
/* columns rows colors chars-per-pixel */
"32 32 47 1 ",
"  c None",
". c black",
"X c #0C0203",
"o c #180406",
"O c #100B04",
"+ c #240609",
"@ c #30080C",
"# c #3C090E",
"$ c #201608",
"% c #2F210C",
"& c #3F2C10",
"* c #480B11",
"= c #540D14",
"- c #600F17",
"; c #6B111A",
": c #6F1A1B",
"> c #77131D",
", c #472512",
"< c #4F3714",
"1 c #5F4218",
"2 c #6E4D1C",
"3 c #7E5820",
"4 c #8F1723",
"5 c #9B1825",
"6 c #A71A28",
"7 c #B31C2B",
"8 c #BF1E2E",
"9 c #932024",
"0 c #9F2227",
"q c #9F3B27",
"w c #AF2D2B",
"e c #B7252C",
"r c #AA3D2A",
"t c #8E6324",
"y c #9E6E28",
"u c #BA612E",
"i c #AD792C",
"p c #CA5332",
"a c #C66331",
"s c #E57939",
"d c #BD8430",
"f c #CD8F34",
"g c #DD9A38",
"h c #ED8C3C",
"j c #F49E3E",
"k c #ECA53C",
"l c #FCB040",
/* pixels */
"           llllllllll           ",
"         lljspqqqqpsjll         ",
"       llhr=o......o=rhll       ",
"      ljr@............@rjl      ",
"     ls:................:sl     ",
"    ls-X......+*-12$.....*sl    ",
"   ls*=6+@=>58888lllyO....*sl   ",
"  lj:;*7888888880llllfO....:jl  ",
"  lr.*7888888888rllllli&O...rl  ",
" lh@..+888888888,llllllf$...@hl ",
" lr....88888888;.1lllll2$....rl ",
"lj=....48888885X..fllllk2....=jl",
"lso....;888886o...fllll1.....osl",
"lp.....*6888wX..%3lllll%......pl",
"lq.....+78ealgdkllllllg.......ql",
"lq....*79uklllllllllll&.......ql",
"lq...o#Xglllllllllllk&........ql",
"lq......%klllllllllll1.&2.....ql",
"lp.......&lllldkllllllfk2.....pl",
"lso.......tllli%kllllll1y3...osl",
"lj=......1kllllO<llllllld$...=jl",
" lr......dlllll&tlllllllk<...rl ",
" lh@.....ylllldO1%dlllllll<.@hl ",
"  lr.....2lllli.$kdtlllllk1.rl  ",
"  lj:....&lll3...%..1y31%..:jl  ",
"   ls*....lly%............*sl   ",
"    ls*...dyO............*sl    ",
"     ls:................:sl     ",
"      ljr@............@rjl      ",
"       llhr=o......o=rhll       ",
"         lljspqqqqpsjll         ",
"           llllllllll           "
};
