/* XPM */
static char *_1608f68db284ed684407224bbb123b9[] = {
/* columns rows colors chars-per-pixel */
"64 64 53 1 ",
"  c None",
". c black",
"X c #0C0203",
"o c #180406",
"O c #100B04",
"+ c #240609",
"@ c #280F0A",
"# c #30080C",
"$ c #3C090E",
"% c #201608",
"& c #2F210C",
"* c #3B230F",
"= c #3F2C10",
"- c #480B11",
"; c #540D14",
": c #401310",
"> c #571615",
", c #600F17",
"< c #6B111A",
"1 c #77131D",
"2 c #4F3714",
"3 c #6B2A1A",
"4 c #673B1A",
"5 c #5F4218",
"6 c #6E4D1C",
"7 c #7E5820",
"8 c #831520",
"9 c #8F1723",
"0 c #9B1825",
"q c #A71A28",
"w c #B31C2B",
"e c #BF1E2E",
"r c #C3272F",
"t c #C73030",
"y c #CA3931",
"u c #8E6324",
"i c #9E6E28",
"p c #AD792C",
"a c #CE4333",
"s c #D65535",
"d c #DA5E36",
"f c #DE6737",
"g c #E17038",
"h c #BD8430",
"j c #CD8F34",
"k c #DD9A38",
"l c #E9823A",
"z c #ED8C3C",
"x c #F1953D",
"c c #F49E3E",
"v c #ECA53C",
"b c #F8A73F",
"n c #FCB040",
/* pixels */
"                         nnnnnnnnnnnnnn                         ",
"                      nnnnnnnnnnnnnnnnnnnn                      ",
"                   nnnnnnbzfdaaaaaadfzbnnnnnn                   ",
"                 nnnnnxdye9<,$####$,<9eydxnnnnn                 ",
"               nnnnbgtq<#..............#<qtgbnnnn               ",
"              nnnbfr1#....................#1rfbnnn              ",
"            nnnngr1o........................o1rgnnnn            ",
"           nnnca0+............................+0acnnn           ",
"          nnnlr,................................,rlnnn          ",
"         nnngw#..................................#wgnnn         ",
"        nnns0o....................................o0snnn        ",
"       nnns0X+o.............o$,9w92nhu&............X0snnn       ",
"      nnng0X.ew#.......+-<9eeeeee9hnnnnk5...........X0gnnn      ",
"      nnlwo..1ee;.#;10eeeeeeeeeee9hnnnnnnj&..........owlnn      ",
"     nncr#+;..,eeeeeeeeeeeeeeeeee,jnnnnnnnv&..........#rcnn     ",
"    nnna,.,e9oweeeeeeeeeeeeeeeeee>nnnnnnnnnv%..........,annn    ",
"    nng0..+0eeeeeeeeeeeeeeeeeeeee4nnnnnnnnnnh...........0gnn    ",
"   nnbr+...X8eeeeeeeeeeeeeeeeeee07nnnnnnnnnnn567O.......+rbnn   ",
"   nnf1......<eeeeeeeeeeeeeeeeee-7nnnnnnnnnnnnnn5........1fnn   ",
"  nnbro.......eeeeeeeeeeeeeeeeeq.%vnnnnnnnnnnni2.........orbnn  ",
"  nng1........qeeeeeeeeeeeeeeee$..&jnnnnnnnnnn=...........1gnn  ",
"  nnt#........8eeeeeeeeeeeeeee8....&nnnnnnnnnnu66.........#tnn  ",
" nnxq.........,eeeeeeeeeeeeeeqX.....innnnnnnnnnnn&.........qxnn ",
" nnd<.........#eeeeeqweeeeeew+......2nnnnnnnnnvu2..........<dnn ",
" nny#.........Xeeeew9eeeeeee#.......=nnnnnnnnnp............#ynn ",
"nnbe...........qeew8eeeeeew$........unnnnnnnnn7.............ebnn",
"nnz9...........8e0,eeeeeew+........&nnnnnnnnnn6.............9znn",
"nnf<...........-,-eeeeee8*......O2innnnnnnnnnn%.............<fnn",
"nnd,............-eeeeeq3hnk777uhnnnnnnnnnnnnnh..............,dnn",
"nna$...........;eeee9>innnnnnnnnnnnnnnnnnnnnn=..............$ann",
"nna#.........X1eee1:7vnnnnnnnnnnnnnnnnnnnnnni...............#ann",
"nna#........o0e0;@7vnnnnnnnnnnnnnnnnnnnnnnnjO...............#ann",
"nna#.......o<-o.pnnnnnnnnnnnnnnnnnnnnnnnnnpO................#ann",
"nna#............innnnnnnnnnnnnnnnnnnnnnnnp..................#ann",
"nna$.............innnnnnnnnnnnnnnnnnnnnnnv&.....%O..........$ann",
"nnd,..............innnnnnnnnnnnnnnnnnnnnnnv%..%pnp..........,dnn",
"nnf<...............innnnnnnnnhnnnnnnnnnnnnnj&innv5..........<fnn",
"nnz9...............Ojnnnnnnnn.innnnnnnnnnnnnnnv7O...........9znn",
"nnbe................Ovnnnnnnn%.innnnnnnnnnnnnvO..5pO........ebnn",
" nny#................7nnnnnnn5..innnnnnnnnnnnni5knn&.......#ynn ",
" nnd<..............%unnnnnnnnp...jnnnnnnnnnnnnnnnh=........<dnn ",
" nnxq.............&vnnnnnnnnnnO..Ojnnnnnnnnnnnnnh..........qxnn ",
"  nnt#............7nnnnnnnnnnn5..5knnnnnnnnnnnnnni........#tnn  ",
"  nng1............7nnnnnnnnnnn7.innkknnnnnnnnnnnnnjO......1gnn  ",
"  nnbro...........=nnnnnnnnnph%.7j5.&vnnnnnnnnnnnnnjO....orbnn  ",
"   nnf1............nnnnnnvnnn&.....%innnnnnnnnnnnnnnjO...1fnn   ",
"   nnbr+...........hnnnnnhvnn=...Oinnvuvnnnnnnnnnnnnn&..+rbnn   ",
"    nng0...........unnhnnninvO...=nniO.2nnnnnnnnnnki5...0gnn    ",
"    nnna,..........5nnnhnnk&%.....=%....2vnnnjp7=O.....,annn    ",
"     nncr#.........=nnnhnnn...............&O..........#rcnn     ",
"      nnlwo.........nnnnpni..........................owlnn      ",
"      nnng0X........vnnn6...........................X0gnnn      ",
"       nnns0X.......hnnj%..........................X0snnn       ",
"        nnns0o......=p5...........................o0snnn        ",
"         nnngw#..................................#wgnnn         ",
"          nnnlr,................................,rlnnn          ",
"           nnnca0+............................+0acnnn           ",
"            nnnngr1o........................o1rgnnnn            ",
"              nnnbfr1#....................#1rfbnnn              ",
"               nnnnbgtq<#..............#<qtgbnnnn               ",
"                 nnnnnxdye9<,$####$,<9eydxnnnnn                 ",
"                   nnnnnnbzfdaaaaaadfzbnnnnnn                   ",
"                      nnnnnnnnnnnnnnnnnnnn                      ",
"                         nnnnnnnnnnnnnn                         "
};
