/* XPM */
static char *_2b5e89557004110da15ab1d3a47437b[] = {
/* columns rows colors chars-per-pixel */
"16 16 38 1 ",
"  c None",
". c black",
"X c #0C0203",
"o c #100B04",
"O c #240609",
"+ c #30080C",
"@ c #3C090E",
"# c #201608",
"$ c #371A0E",
"% c #2F210C",
"& c #3F2C10",
"* c #4F1E14",
"= c #600F17",
"- c #4F3714",
"; c #5F4218",
": c #6E4D1C",
"> c #831520",
", c #8F1723",
"< c #9B1825",
"1 c #BF1E2E",
"2 c #9F2227",
"3 c #873721",
"4 c #9F3B27",
"5 c #B63F2D",
"6 c #8E6324",
"7 c #9E6E28",
"8 c #AD792C",
"9 c #CE4333",
"0 c #CD7634",
"q c #E17038",
"w c #BD8430",
"e c #CD8F34",
"r c #E18A39",
"t c #ED8C3C",
"y c #F1953D",
"u c #ECA53C",
"i c #F8A63F",
"p c #FCB040",
/* pixels */
"     pyttyp     ",
"   p0*X..X*0p   ",
"  i4...+$%..3i  ",
" p5,><11qpwo.3p ",
" 0O<1111rppe#.0 ",
"p*.=111,%ppu&.*p",
"yX.@112X-ppw..Xy",
"t..=9tppppp-...t",
"t.XOepppppe#%..t",
"yX..#upepppu7.Xy",
"p*..:pp8eppp8.*p",
" 0..-pp;6uppp&0 ",
" p3.#p7.#.&&#3p ",
"  i3.:......3i  ",
"   p0*X..X*0p   ",
"     pyttyp     "
};
