/* XPM */
static char *_b7177a2b81e41b1baaffe8e0e09b925[] = {
/* columns rows colors chars-per-pixel */
"128 128 48 1 ",
"  c None",
". c black",
"X c #0C0203",
"o c #180406",
"O c #100B04",
"+ c #240609",
"@ c #30080C",
"# c #3C090E",
"$ c #201608",
"% c #2F210C",
"& c #3F2C10",
"* c #480B11",
"= c #540D14",
"- c #600F17",
"; c #6B111A",
": c #77131D",
"> c #4F3714",
", c #5F4218",
"< c #6E4D1C",
"1 c #7E5820",
"2 c #831520",
"3 c #8F1723",
"4 c #9B1825",
"5 c #A71A28",
"6 c #B31C2B",
"7 c #BF1E2E",
"8 c #C3272F",
"9 c #C73030",
"0 c #CA3931",
"q c #8E6324",
"w c #9E6E28",
"e c #AD792C",
"r c #CE4333",
"t c #D24C34",
"y c #D65535",
"u c #DE6737",
"i c #E17038",
"p c #E57939",
"a c #BD8430",
"s c #CD8F34",
"d c #DD9A38",
"f c #E9823A",
"g c #ED8C3C",
"h c #F1953D",
"j c #F49E3E",
"k c #ECA53C",
"l c #F8A73F",
"z c #FCB040",
/* pixels */
"                                                      zzzzzzzzzzzzzzzzzzzz                                                      ",
"                                                 zzzzzzzzzzzzzzzzzzzzzzzzzzzzzz                                                 ",
"                                              zzzzzzzzzzzzzzzzzzzzzzzzzzzzzzzzzzzz                                              ",
"                                           zzzzzzzzzzzzzzzzzzzzzzzzzzzzzzzzzzzzzzzzzz                                           ",
"                                        zzzzzzzzzzzzzzzjgpuutrrrrrrtuupgjzzzzzzzzzzzzzzz                                        ",
"                                      zzzzzzzzzzzzhiyr77777777777777777777ryihzzzzzzzzzzzz                                      ",
"                                   zzzzzzzzzzzjpt877777733;--=@@@@=--;337777778tpjzzzzzzzzzzz                                   ",
"                                 zzzzzzzzzzji0777762-@o..................o@-2677770ijzzzzzzzzzz                                 ",
"                                zzzzzzzzzft77773=+............................+=37777tfzzzzzzzzz                                ",
"                              zzzzzzzzlu97773*X..................................X*37779ulzzzzzzzz                              ",
"                            zzzzzzzzlu8775-o........................................o-5778ulzzzzzzzz                            ",
"                           zzzzzzzzu8775*..............................................*5778uzzzzzzzz                           ",
"                          zzzzzzzf9774@..................................................@4779fzzzzzzz                          ",
"                        zzzzzzzjr775*......................................................*577rjzzzzzzz                        ",
"                       zzzzzzzi876-..........................................................-678izzzzzzz                       ",
"                      zzzzzzlr773o............................................................o377rlzzzzzz                      ",
"                     zzzzzzg876=................................................................=678gzzzzzz                     ",
"                    zzzzzzi774+..................................................................+477izzzzzz                    ",
"                   zzzzzzy77:X....................................................................X:77yzzzzzz                   ",
"                  zzzzzlr77*........................................................................*77rlzzzzz                  ",
"                 zzzzzl076@..........................................................................@670lzzzzz                 ",
"                zzzzzl076+............................................................................+670lzzzzz                ",
"               zzzzzl076+.....................................@*;37*.&aa1>$............................+670lzzzzz               ",
"              zzzzzl076+..+-#............................@=:4777777-.dzzzzzs<$..........................+670lzzzzz              ",
"             zzzzzzr76+...677-.....................X@-2577777777777-%zzzzzzzzza,.........................+67rzzzzzz             ",
"             zzzzzy76+....77772X..............o#-357777777777777777@&zzzzzzzzzzzd,........................+67yzzzzz             ",
"            zzzzzi77@.....;77774o........+*;36777777777777777777777@&zzzzzzzzzzzzza$.......................@77izzzzz            ",
"           zzzzzg77*.......*67776@..@=;3777777777777777777777777777@,zzzzzzzzzzzzzzk,.......................*77gzzzzz           ",
"          zzzzzl87:.........+67777577777777777777777777777777777777X1zzzzzzzzzzzzzzzzq.......................:78lzzzzz          ",
"          zzzzzr74X..-5-.....=7777777777777777777777777777777777776.wzzzzzzzzzzzzzzzzzw......................X47rzzzzz          ",
"         zzzzzi76+..X7772X..*77777777777777777777777777777777777773.szzzzzzzzzzzzzzzzzz<......................+67izzzzz         ",
"         zzzzj87=...X77774+o67777777777777777777777777777777777777=Ozzzzzzzzzzzzzzzzzzzz&......................=78jzzzz         ",
"        zzzzzr73.....*67776377777777777777777777777777777777777777+>zzzzzzzzzzzzzzzzzzzzdO......................37rzzzzz        ",
"       zzzzzf76o......+5777777777777777777777777777777777777777775.qzzzzzzzzzzzzzzzzzzzzz1......................o67fzzzzz       ",
"       zzzzz97-........X37777777777777777777777777777777777777777;.azzzzzzzzzzzzzzzzzzzzzzO......................-79zzzzz       ",
"      zzzzzu75...........:777777777777777777777777777777777777777+.zzzzzzzzzzzzzzzzzzzzzzzq1wszk&.................57uzzzzz      ",
"      zzzzl87*............*77777777777777777777777777777777777773..zzzzzzzzzzzzzzzzzzzzzzzzzzzzze.................*78lzzzz      ",
"      zzzzu74..............@777777777777777777777777777777777777#..dzzzzzzzzzzzzzzzzzzzzzzzzzzzz1..................47uzzzz      ",
"     zzzzl87@...............777777777777777777777777777777777774...<zzzzzzzzzzzzzzzzzzzzzzzzzde,...................@78lzzzz     ",
"     zzzzu75................37777777777777777777777777777777777@....qzzzzzzzzzzzzzzzzzzzzzzz$.......................57uzzzz     ",
"    zzzzz97*................37777777777777777777777777777777773......,kzzzzzzzzzzzzzzzzzzzzz&.......................*79zzzzz    ",
"    zzzzf75.................-777777777777777777777777777777776o.......%kzzzzzzzzzzzzzzzzzzzz1........................57fzzzz    ",
"    zzzzt7-.................#77777777777777777777777777777777=.........,zzzzzzzzzzzzzzzzzzzzw........................-7tzzzz    ",
"   zzzzj77o.................o77777777777777767777777777777773...........azzzzzzzzzzzzzzzzzzzs,qazq...................o77jzzzz   ",
"   zzzzi73...................6777777777777745777777777777776X...........&zzzzzzzzzzzzzzzzzzzzzzzzz%...................37izzzz   ",
"   zzzz07*...................37777777777774;777777777777777@.............szzzzzzzzzzzzzzzzzzzzzzzz$...................*70zzzz   ",
"  zzzzj77X...................-777777777776#777777777777777=..............qzzzzzzzzzzzzzzzzzzzzzdw&....................X77jzzzz  ",
"  zzzzp73....................#77777777776@677777777777777:...............,zzzzzzzzzzzzzzzzzzz1O........................37pzzzz  ",
"  zzzzt7=....................o7777777777+3777777777777772................>zzzzzzzzzzzzzzzzzzz&.........................=7tzzzz  ",
" zzzzz87+.....................677777777*;777777777777774X................1zzzzzzzzzzzzzzzzzzz$.........................+78zzzzz ",
" zzzzh76......................37777777**777777777777774X.................szzzzzzzzzzzzzzzzzzz...........................67hzzzz ",
" zzzzi72......................-777777*+77777777777777:..................$zzzzzzzzzzzzzzzzzzzz...........................27izzzz ",
" zzzzy7-......................#77776@+67777777777777;...................azzzzzzzzzzzzzzzzzzza...........................-7yzzzz ",
" zzzzr7@......................o7773oX67777777777776*...................wzzzzzzzzzzzzzzzzzzzzq...........................@7rzzzz ",
"zzzzz77o.......................56=.X47777777777774+..................%azzzzzzzzzzzzzzzzzzzzz%...........................o77zzzzz",
"zzzzj77........................@X.X4777777777777-.$%.............O,wkzzzzzzzzzzzzzzzzzzzzzzd.............................77jzzzz",
"zzzzg73..........................X4777777777772oOwzza>.......$&1azzzzzzzzzzzzzzzzzzzzzzzzzz1.............................37gzzzz",
"zzzzp73.........................+577777777773@.<kzzzzzzaaaaszzzzzzzzzzzzzzzzzzzzzzzzzzzzzzkO.............................37pzzzz",
"zzzzu7;........................+67777777772@.&dzzzzzzzzzzzzzzzzzzzzzzzzzzzzzzzzzzzzzzzzzzz1..............................;7uzzzz",
"zzzzu7-.......................#677777777:o.$azzzzzzzzzzzzzzzzzzzzzzzzzzzzzzzzzzzzzzzzzzzzkO..............................-7uzzzz",
"zzzzt7-......................=77777776-X.Oqzzzzzzzzzzzzzzzzzzzzzzzzzzzzzzzzzzzzzzzzzzzzzz<...............................-7tzzzz",
"zzzzr7=....................X:7777774*..O1kzzzzzzzzzzzzzzzzzzzzzzzzzzzzzzzzzzzzzzzzzzzzzzw................................=7rzzzz",
"zzzzr7@...................o477776;+..O1kzzzzzzzzzzzzzzzzzzzzzzzzzzzzzzzzzzzzzzzzzzzzzzzsO................................@7rzzzz",
"zzzzr7@..................#6775:#...$qkzzzzzzzzzzzzzzzzzzzzzzzzzzzzzzzzzzzzzzzzzzzzzzzzsO.................................@7rzzzz",
"zzzzr7@................X;62=+...$<szzzzzzzzzzzzzzzzzzzzzzzzzzzzzzzzzzzzzzzzzzzzzzzzzzaO..................................@7rzzzz",
"zzzzr7@................o+.......azzzzzzzzzzzzzzzzzzzzzzzzzzzzzzzzzzzzzzzzzzzzzzzzzzzw....................................@7rzzzz",
"zzzzr7=.........................qzzzzzzzzzzzzzzzzzzzzzzzzzzzzzzzzzzzzzzzzzzzzzzzzzk,.....................................=7rzzzz",
"zzzzt7-..........................<zzzzzzzzzzzzzzzzzzzzzzzzzzzzzzzzzzzzzzzzzzzzzzzzs......................................-7yzzzz",
"zzzzu7-...........................,zzzzzzzzzzzzzzzzzzzzzzzzzzzzzzzzzzzzzzzzzzzzzzzzw.....................................-7uzzzz",
"zzzzu7;............................,zzzzzzzzzzzzzzzzzzzzzzzzzzzzzzzzzzzzzzzzzzzzzzzz1...........O&$......................;7uzzzz",
"zzzzp73.............................,zzzzzzzzzzzzzzzzzzzzzzzzzzzzzzzzzzzzzzzzzzzzzzzz,.........<kzkO.....................37pzzzz",
"zzzzg73..............................,zzzzzzzzzzzzzzzzzzzzzzzzzzzzzzzzzzzzzzzzzzzzzzzz&......,dzzzz&.....................37gzzzz",
"zzzzj77...............................wzzzzzzzzzzzzzzzzzzzzzzzzzzzzzzzzzzzzzzzzzzzzzzzk%...,dzzzzzk$.....................77jzzzz",
"zzzzz77o...............................wzzzzzzzzzzzzzzzzzz<%zzzzzzzzzzzzzzzzzzzzzzzzzzzdO,dzzzzzz1O.....................o77zzzzz",
" zzzzr7@...............................Oszzzzzzzzzzzzzzzzs..,zzzzzzzzzzzzzzzzzzzzzzzzzzzzzzzzzzw$.......................@7rzzzz ",
" zzzzy7-................................Okzzzzzzzzzzzzzzza...,zzzzzzzzzzzzzzzzzzzzzzzzzzzzzzzw$.........................-7yzzzz ",
" zzzzi72.................................%zzzzzzzzzzzzzzzk....,zzzzzzzzzzzzzzzzzzzzzzzzzzzza%.......&O..................27izzzz ",
" zzzzh76..................................1zzzzzzzzzzzzzzz%....qzzzzzzzzzzzzzzzzzzzzzzzzzzzw......,dzkO.................67hzzzz ",
" zzzzz87+..................................dzzzzzzzzzzzzzz1.....wzzzzzzzzzzzzzzzzzzzzzzzzzzzw...,dzzzz&................+78zzzzz ",
"  zzzzt7=..................................dzzzzzzzzzzzzzzs......wzzzzzzzzzzzzzzzzzzzzzzzzzzzw,dzzzzzkO................=7tzzzz  ",
"  zzzzp73................................$azzzzzzzzzzzzzzzz$......ezzzzzzzzzzzzzzzzzzzzzzzzzzzzzzzzz1O.................37pzzzz  ",
"  zzzzj77X.............................&azzzzzzzzzzzzzzzzzz<......Oszzzzzzzzzzzzzzzzzzzzzzzzzzzzzzw$..................X77jzzzz  ",
"   zzzz07*............................qzzzzzzzzzzzzzzzzzzzzs.......Oszzzzzzzzzzzzzzzzzzzzzzzzzzzk$....................*70zzzz   ",
"   zzzzi73...........................<zzzzzzzzzzzzzzzzzzzzzz$.......Oszzzzzzzzzzzzzzzzzzzzzzzzzzzw....................37izzzz   ",
"   zzzzj77o..........................dzzzzzzzzzzzzzzzzzzzzzz<.......,dzzzzzzzzzzzzzzzzzzzzzzzzzzzzw..................o77jzzzz   ",
"    zzzzt7-..........................zzzzzzzzzzzzzzzzzzzzzzza.....&szzzzzzzzzzzzzzzzzzzzzzzzzzzzzzzw.................-7tzzzz    ",
"    zzzzf75..........................kzzzzzzzzzzzzzzzzzzzzzza...OazzzzzzzzzzzzzzzzzzzzzzzzzzzzzzzzzzsO...............57fzzzz    ",
"    zzzzz97*.........................wzzzzzzzzzzzzzzzzzqszzze...<zzzzza&>zzzzzzzzzzzzzzzzzzzzzzzzzzzzsO.............*79zzzzz    ",
"     zzzzu75.........................,zzzzzzzzzzzzzzzzzz,ezz&...,zzza&...,zzzzzzzzzzzzzzzzzzzzzzzzzzzzsO............57uzzzz     ",
"     zzzzl87@........................%zzzzzzzzzzzzzzzzzzk%>&.....<w&......,zzzzzzzzzzzzzzzzzzzzzzzzzzzzd%..........@78lzzzz     ",
"      zzzzu74.........................kzzzzzzzzzzzkzzzzzzdO..............,dzzzzzzzzzzzzzzzzzzzzzzzzzzzzzk%.........47uzzzz      ",
"      zzzzl87*........................azzzzzzzzzzz,zzzzzzz<............,dzzzzzzzzzzzzzzzzzzzzzzzzzzzzzzzzkO.......*78lzzzz      ",
"      zzzzzu75........................1zzzzzzzzzzzw1zzzzzz1..........&azzzzzzszzzzzzzzzzzzzzzzzzzzzzzzzzzz&.......57uzzzzz      ",
"       zzzzz97-.......................&zzzzzddzzzzz&ezzzzz<........Oazzzzzzw$.wzzzzzzzzzzzzzzzzzzzzzzzzzzkO......-79zzzzz       ",
"       zzzzzf76o.......................zzzzzk,zzzzzk$dzzzz$........<zzzzza%....azzzzzzzzzzzzzzzzzzzzzzzzs>......o67fzzzzz       ",
"        zzzzzr73.......................szzzzz,dzzzzze%kzz1.........,zzza&......Oszzzzzzzzzzzzzzzzzzde1&.........37rzzzzz        ",
"         zzzzj87=......................ezzzzzd&zzzzzz&$1,...........<1&.........Oszzzzzzzzzzzzde1&O............=78jzzzz         ",
"         zzzzzi76+.....................1zzzzzz,azzzzzs............................1kzzzzdaq<&O................+67izzzzz         ",
"          zzzzzr74X....................>zzzzzza&zzzzzz..............................$&$......................X47rzzzzz          ",
"          zzzzzl87:....................&zzzzzzz&azzzzd.......................................................:78lzzzzz          ",
"           zzzzzg77*....................zzzzzzza&zzzz<......................................................*77gzzzzz           ",
"            zzzzzi77@...................kzzzzzzz%qzz1......................................................@77izzzzz            ",
"             zzzzzy76+..................azzzzzzzq..O......................................................+67yzzzzz             ",
"             zzzzzzr76+.................wzzzzzzza........................................................+67rzzzzzz             ",
"              zzzzzl076+................1zzzzzzz>.......................................................+670lzzzzz              ",
"               zzzzzl076+...............&zzzzza$.......................................................+670lzzzzz               ",
"                zzzzzl076+...............szza&........................................................+670lzzzzz                ",
"                 zzzzzl076@..............O&$.........................................................@670lzzzzz                 ",
"                  zzzzzlr77*........................................................................*77rlzzzzz                  ",
"                   zzzzzzy77:X....................................................................X:77yzzzzzz                   ",
"                    zzzzzzi774+..................................................................+477izzzzzz                    ",
"                     zzzzzzg876=................................................................=678gzzzzzz                     ",
"                      zzzzzzlr773o............................................................o377rlzzzzzz                      ",
"                       zzzzzzzi876-..........................................................-678izzzzzzz                       ",
"                        zzzzzzzjr775*......................................................*577rjzzzzzzz                        ",
"                          zzzzzzzf9774@..................................................@4779fzzzzzzz                          ",
"                           zzzzzzzzu8775*..............................................*5778uzzzzzzzz                           ",
"                            zzzzzzzzlu8775-o........................................o-5778ulzzzzzzzz                            ",
"                              zzzzzzzzlu97773*X..................................X*37779ulzzzzzzzz                              ",
"                                zzzzzzzzzft77773=+............................+=37777tfzzzzzzzzz                                ",
"                                 zzzzzzzzzzji0777762-@o..................o@-2677770ijzzzzzzzzzz                                 ",
"                                   zzzzzzzzzzzjpt877777733;--=@@@@=--;337777778tpjzzzzzzzzzzz                                   ",
"                                      zzzzzzzzzzzzhiyr77777777777777777777ryihzzzzzzzzzzzz                                      ",
"                                        zzzzzzzzzzzzzzzjgpuuyrrrrrrtuupgjzzzzzzzzzzzzzzz                                        ",
"                                           zzzzzzzzzzzzzzzzzzzzzzzzzzzzzzzzzzzzzzzzzz                                           ",
"                                              zzzzzzzzzzzzzzzzzzzzzzzzzzzzzzzzzzzz                                              ",
"                                                 zzzzzzzzzzzzzzzzzzzzzzzzzzzzzz                                                 ",
"                                                      zzzzzzzzzzzzzzzzzzzz                                                      "
};
