/* XPM */
static char *_f787bc3da9e4d98db731e9a602969a4[] = {
/* columns rows colors chars-per-pixel */
"32 32 176 2 ",
"   c #0E100C",
".  c #211A12",
"X  c #201F1B",
"o  c #24211D",
"O  c #2C251E",
"+  c #34251C",
"@  c #3B251B",
"#  c #3C2A1F",
"$  c #2F2720",
"%  c #2C2E2A",
"&  c #332921",
"*  c #3A2D23",
"=  c #3B3D3A",
"-  c #4B261B",
";  c #462F1F",
":  c #432D21",
">  c #482D22",
",  c #443124",
"<  c #4C3426",
"1  c #45372B",
"2  c #493528",
"3  c #533326",
"4  c #573927",
"5  c #543A29",
"6  c #5C3A2A",
"7  c #4B3F35",
"8  c #543A30",
"9  c #5E3D30",
"0  c #6F3B2B",
"q  c #4D443D",
"w  c #574032",
"e  c #5F4230",
"r  c #5B4835",
"t  c #65402A",
"y  c #6B442C",
"u  c #72472E",
"i  c #634533",
"p  c #6B4631",
"a  c #6D4A35",
"s  c #714331",
"d  c #744C35",
"f  c #704D3B",
"g  c #794F38",
"h  c #7E5236",
"j  c #7E533A",
"k  c #4A4946",
"l  c #4A4C49",
"z  c #585754",
"x  c #5D5A56",
"c  c #7E5740",
"v  c #7A5A46",
"b  c #666562",
"n  c #706F67",
"m  c #747371",
"M  c #777976",
"N  c #814B33",
"B  c #82543A",
"V  c #8C563C",
"C  c #86583B",
"Z  c #8C5A3E",
"A  c #93563B",
"S  c #855C47",
"D  c #8B5A43",
"F  c #925E41",
"G  c #9A5E43",
"H  c #856446",
"J  c #846148",
"K  c #8E664D",
"L  c #946245",
"P  c #9B6343",
"I  c #94634A",
"U  c #9B654A",
"Y  c #956D4D",
"T  c #9E694B",
"R  c #886150",
"E  c #886B5A",
"W  c #9E6751",
"Q  c #A36646",
"!  c #A26846",
"~  c #A56B49",
"^  c #AB6E4D",
"/  c #AC714E",
"(  c #B0724E",
")  c #A96F50",
"_  c #A67455",
"`  c #AC7454",
"'  c #AF7C50",
"]  c #A5765A",
"[  c #AF745A",
"{  c #B47652",
"}  c #B87754",
"|  c #B77A57",
" . c #BC7C56",
".. c #B3755D",
"X. c #BA745C",
"o. c #B3795C",
"O. c #BB7C5A",
"+. c #977461",
"@. c #F09500",
"#. c #F19C10",
"$. c #BB835E",
"%. c #AA836F",
"&. c #AC886E",
"*. c #B68466",
"=. c #BF8861",
"-. c #A18575",
";. c #B09376",
":. c #C6835C",
">. c #C8845E",
",. c #F4B040",
"<. c #F5B650",
"1. c #C18662",
"2. c #CA8660",
"3. c #C38964",
"4. c #CC8B64",
"5. c #C4836C",
"6. c #C19467",
"7. c #CC916C",
"8. c #D3916A",
"9. c #C79570",
"0. c #CC9471",
"q. c #C5977A",
"w. c #D39771",
"e. c #D29B75",
"r. c #DB9C75",
"t. c #D29B78",
"y. c #E09E79",
"u. c #DBA175",
"i. c #DCA379",
"p. c #F6BD60",
"a. c #E2AA7F",
"s. c #8A8581",
"d. c #B39882",
"f. c #B9A397",
"g. c #A5A5A4",
"h. c #B3AFAC",
"j. c #B4B4B3",
"k. c #BFBCBA",
"l. c #D1A789",
"z. c #D8A889",
"x. c #DAAE91",
"c. c #D9B394",
"v. c #DDB69A",
"b. c #E4AF87",
"n. c #E7BA97",
"m. c #DEBDAA",
"M. c #CABAB1",
"N. c #F8CA80",
"B. c #FADEAF",
"V. c #E7CEB7",
"C. c #EFD4BD",
"Z. c #FBE5BF",
"A. c #C5C5C4",
"S. c #D1CCC2",
"D. c #D4CFCB",
"F. c #DCD2CC",
"G. c #E8D3C4",
"H. c #EEDACC",
"J. c #E5DEDA",
"K. c #F3E2CE",
"L. c #EFE3DA",
"P. c #F1E1D2",
"I. c #F9E8D7",
"U. c #F2E5DC",
"Y. c #F8EADF",
"T. c #E1E1E1",
"R. c #E9E7E5",
"E. c #EEE9E6",
"W. c #F8EFE4",
"Q. c #F7F0EB",
"!. c #FAF5EF",
"~. c #FEF8EF",
"^. c #F1F1F1",
"/. c #FCF8F3",
"(. c gray100",
"). c None",
/* pixels */
").).).).).).).).).).).@.@.@.@.@.@.@.@.@.@.).).).).).).).).).).).",
").).).).).).).).).@.@.#.<.N.Z.Z.Z.Z.N.<.#.@.@.).).).).).).).).).",
").).).).).).).@.@.,.B.(.^.m X o o o x s.M.B.,.@.@.).).).).).).).",
").).).).).).@.#.B.(.(.^.k X X $ , a f c i q h.B.#.@.).).).).).).",
").).).).).@.,.~.(.(.(.b X o $ B :.2.>.4.a.a.a.n.I.,.@.).).).).).",
").).).).@.p.(.(.(.(.A.o X o & P O.:.>.r.a.a.a.a.b.L.p.@.).).).).",
").).).@.,.(.(.(.(.(.b X & & & U ^ >.>.e.a.a.a.a.b.9.D.,.@.).).).",
").).@.#.~.(.(.(.(.(.z X $ & & a ( >.>.2.i.a.a.b.a.a.;./.#.@.).).",
").).@.B.(.(.(.(.(.(.X X & & & F ) 2.2.2.8.i.i.b.i.u.6.(.B.@.).).",
").@.,.(.(.(.(.(.(.(.X O & & e ~ B U F ~ ! 2.r.3.Y r H R.(.,.@.).",
").@.B.(.(.(.(.(.(.(.z $ & & C d @ > 9 9 3 g 8.D > S J F.(.B.@.).",
"@.#.(.(.(.(.(.(.(.(.E v & & P C 6 > f +.B D ^ K 8 R ] (.(.(.#.@.",
"@.<.(.(.(.(.(.(.(.F.F T w * A  .{ U X.8.4.^ ^ 4.] *.9.L.(.(.<.@.",
"@.N.(.(.(.(.(.(.(.F.G P i 2 L ( >.r.y.y.r.Q Q } i.a.a.Y.(.(.N.@.",
"@.Z.(.(.(.(.(.(.(.E.P Q g * h Q >.2.y.y.y.G N A ) i.a.C.(.(.Z.@.",
"@.Z.(.(.(.(.(.(.(.(.%.Q D + d P ~  .8.r.i.V - - 0 r.i.V.(.(.Z.@.",
"@.Z.(.(.(.(.(.(.(.(.J.U A p d C P ( >.>.} U [ ..` [ =.G.(.(.Z.@.",
"@.Z.(.(.(.(.(.(.(.(.(.(.-.d d d V P P s u D W X...I ` L.(.(.Z.@.",
"@.N.(.(.(.(.(.(.(.(.(.(.f.d d d d d ' ^ Z V ..I 5.1.$.Q.(.(.N.@.",
"@.<.(.(.(.(.(.(.(.(.(.(.M.6 < d d d ~ P P A P P 1.| q.(.(.(.<.@.",
"@.#.(.(.(.(.(.(.(.(.(.(.F.y ; < d g C P P / $.7.w.1.G.(.(.(.#.@.",
").@.B.(.(.(.(.(.(.(.(.(.F.u t ; # , < i Z P ~ ~ 1.l.(.(.(.B.@.).",
").@.,.(.(.(.(.(.(.(.(.T.q h C d 5 # # # < u h F _ Y.(.(.(.,.@.).",
").).@.B.(.(.(.(.(.(.^.= ; h C Z B u : # # # * 5 d.W.(.(.B.@.).).",
").).@.#.~.(.(.(.(.^.=   ; h P { ^ C h t t a C ) v.K././.#.@.).).",
").).).@.,.(.(.(.A.=     . h P { { F C h Z ~ { 3.c.K./.,.@.).).).",
").).).).@.p.(.l           u U ' { ^ L / O.0.3.t.&.!.p.@.).).).).",
").).).).).@.,.S.=         + L { | =.} { 0.t.t.x.P.,.@.).).).).).",
").).).).).).@.#.B.g.%       : } { e.e.O.t.z.H.B.#.@.).).).).).).",
").).).).).).).@.@.,.B.j.M l n 1 T 3.v.m.Y.B.,.@.@.).).).).).).).",
").).).).).).).).).@.@.#.<.N.Z.Z.Z.K.N.<.#.@.@.).).).).).).).).).",
").).).).).).).).).).).@.@.@.@.@.@.@.@.@.@.).).).).).).).).).).)."
};
