/* XPM */
static char *_0b520070dbb4b39fdad620c88179eef[] = {
/* columns rows colors chars-per-pixel */
"16 16 127 2 ",
"   c #0E100C",
".  c #1D1F1B",
"X  c #201F1B",
"o  c #24211C",
"O  c #25221D",
"+  c #27231D",
"@  c #2C2218",
"#  c #332921",
"$  c #432E21",
"%  c #582E20",
"&  c #4D3023",
"*  c #4F3625",
"=  c #48362A",
"-  c #543926",
";  c #533828",
":  c #583928",
">  c #5B3D2D",
",  c #5B402F",
"<  c #544033",
"1  c #5A4030",
"2  c #60412E",
"3  c #66442F",
"4  c #68442E",
"5  c #6D4833",
"6  c #694835",
"7  c #6D493A",
"8  c #764D35",
"9  c #774E37",
"0  c #744E38",
"q  c #7F5337",
"w  c #4A4C49",
"e  c #755344",
"r  c #666562",
"t  c #80523B",
"y  c #815439",
"u  c #85563A",
"i  c #84573A",
"p  c #8C563C",
"a  c #8D5A3D",
"s  c #905D3F",
"d  c #845A44",
"f  c #905C43",
"g  c #9A5F49",
"h  c #936142",
"j  c #9F6344",
"k  c #9C6444",
"l  c #9D6544",
"z  c #9C7556",
"x  c #A56C4B",
"c  c #A0684D",
"v  c #A26B4E",
"b  c #A76E4D",
"n  c #AB6E4D",
"m  c #AB6E4F",
"M  c #A9704E",
"N  c #AB754D",
"B  c #B0724E",
"V  c #AC6E57",
"C  c #AC7554",
"Z  c #B07352",
"A  c #B17854",
"S  c #BC7B57",
"D  c #B2765B",
"F  c #B57B59",
"G  c #BD7D5B",
"H  c #BF7E5A",
"J  c #857162",
"K  c #8B7568",
"L  c #937563",
"P  c #957562",
"I  c #BA7D61",
"U  c #BB7E60",
"Y  c #F09500",
"T  c #F19C11",
"R  c #F2A220",
"E  c #82817F",
"W  c #948975",
"Q  c #B88261",
"!  c #BC8766",
"~  c #C1805A",
"^  c #C6825D",
"/  c #F4B040",
"(  c #E7AE50",
")  c #E9AF52",
"_  c #F3B757",
"`  c #C68661",
"'  c #C38964",
"]  c #CB8962",
"[  c #CF8E66",
"{  c #CC9471",
"}  c #D39B72",
"|  c #D09D75",
" . c #D99873",
".. c #DF9C77",
"X. c #D39F7E",
"o. c #DFA57B",
"O. c #F6BD60",
"+. c #E0A87D",
"@. c #E2AA7F",
"#. c #969695",
"$. c #B59E8F",
"%. c #B7A086",
"&. c #A5A5A4",
"*. c #C59D82",
"=. c #CDB182",
"-. c #D6AB90",
";. c #DAB397",
":. c #E4AF87",
">. c #E4BB9A",
",. c #CDB6A2",
"<. c #D4B5A1",
"1. c #EECA96",
"2. c #F4CE96",
"3. c #F5CE97",
"4. c #DBC7B2",
"5. c #E9C6A4",
"6. c #E5C9AF",
"7. c #F9DAA9",
"8. c #FADEAF",
"9. c #DDCCC3",
"0. c #DDD3CD",
"q. c #EFE4D1",
"w. c #FDF2DF",
"e. c #F7F0EB",
"r. c #F6F4F3",
"t. c gray100",
"y. c None",
/* pixels */
"y.y.y.y.y.Y R / / R Y y.y.y.y.y.",
"y.y.y.Y O.q.r O = K %.) Y y.y.y.",
"y.y.T 8.t.E O 6 ^ ] +.:.3.T y.y.",
"y.Y 8.t.t.. # , S ] o.+.| 3.Y y.",
"y.O.t.t.t.O # 0 Z G [ } z 4.O.y.",
"Y w.t.t.t.< # a & e t f 7 $.w.Y ",
"R t.t.t.0.m 1 B `  .G m ! ;.t.R ",
"/ t.t.t.r.j > s ~ ..U % v >.t./ ",
"/ t.t.t.t.9.d 8 l M v V D *.t./ ",
"R t.t.t.t.t.L 5 9 N p g I <.t.R ",
"Y w.t.t.t.t.P : 2 y l A ' e.w.Y ",
"y.O.t.t.t.&.* u 4 $ - 3 ,.t.O.y.",
"y.Y 8.t.#.  - x h q u C 6.7.Y y.",
"y.y.T =..   @ x F b { X.1.T y.y.",
"y.y.y.Y ( W w J Q -.5._ Y y.y.y.",
"y.y.y.y.y.Y R / / R Y y.y.y.y.y."
};
